<svg width="15" height="9" viewBox="0 0 15 9" fill="none" xmlns="http://www.w3.org/2000/svg">
<path d="M7.51993 6.43328C7.75414 6.17957 7.97794 5.93642 8.21216 5.70385C9.97656 3.90672 11.741 2.11486 13.5054 0.317727C13.8853 -0.0681286 14.3589 -0.0998427 14.7128 0.222585C15.0824 0.555584 15.098 1.09473 14.7389 1.46472C14.0779 2.14658 13.4065 2.82315 12.7351 3.505C11.2153 5.04843 9.6903 6.59185 8.17052 8.13527C7.7125 8.59513 7.27531 8.59513 6.81729 8.12999C4.65213 5.93114 2.48697 3.73229 0.321805 1.53344C-0.0529344 1.15287 -0.104982 0.687726 0.181278 0.323013C0.50397 -0.0892714 1.06608 -0.110414 1.45643 0.286013C2.32042 1.16344 3.1844 2.04086 4.04838 2.91829C5.19342 4.07586 6.33325 5.23343 7.51993 6.43328Z" fill="#183B56"/>
</svg>
