<?xml version="1.0" encoding="UTF-8"?> <!-- Generator: Adobe Illustrator 23.0.3, SVG Export Plug-In . SVG Version: 6.00 Build 0) --> <svg xmlns="http://www.w3.org/2000/svg" xmlns:xlink="http://www.w3.org/1999/xlink" version="1.1" id="Layer_1" x="0px" y="0px" viewBox="0 0 512 394" style="enable-background:new 0 0 512 394;" xml:space="preserve"> <style type="text/css"> .st0{fill:#4669AF;} .st1{fill:#FF5722;} .st2{fill:#4FB4C8;} </style> <g id="Fillde_Outline"> <path class="st0" d="M375.5,106.5h102.4v273.1H375.5V106.5z"></path> <path class="st1" d="M409.6,140.6h34.1v34.1h-34.1V140.6z"></path> <path class="st1" d="M409.6,208.9h34.1V243h-34.1V208.9z"></path> <path class="st0" d="M34.1,106.5h102.4v273.1H34.1V106.5z"></path> <path class="st1" d="M68.3,140.6h34.1v34.1H68.3V140.6z"></path> <path class="st1" d="M68.3,208.9h34.1V243H68.3V208.9z"></path> <path class="st0" d="M136.5,12.6h238.9v366.9H136.5V12.6z"></path> <g> <path class="st1" d="M170.7,46.7h34.1v34.1h-34.1V46.7z"></path> <path class="st1" d="M238.9,46.7h34.1v34.1h-34.1V46.7z"></path> <path class="st1" d="M307.2,46.7h34.1v34.1h-34.1V46.7z"></path> <path class="st1" d="M170.7,115h34.1v34.1h-34.1V115z"></path> <path class="st1" d="M238.9,115h34.1v34.1h-34.1V115z"></path> <path class="st1" d="M307.2,115h34.1v34.1h-34.1V115z"></path> <path class="st2" d="M170.7,183.3h34.1v34.1h-34.1V183.3z"></path> <path class="st2" d="M238.9,183.3h34.1v34.1h-34.1V183.3z"></path> <path class="st2" d="M307.2,183.3h34.1v34.1h-34.1V183.3z"></path> <path class="st2" d="M204.8,251.5h102.4v128H204.8V251.5z"></path> </g> <path d="M503.5,371h-17.1V106.5c0-4.7-3.8-8.5-8.5-8.5H384V12.6c0-4.7-3.8-8.5-8.5-8.5H136.5c-4.7,0-8.5,3.8-8.5,8.5v85.3H34.1 c-4.7,0-8.5,3.8-8.5,8.5V371H8.5c-4.7,0-8.5,3.8-8.5,8.5s3.8,8.5,8.5,8.5h494.9c4.7,0,8.5-3.8,8.5-8.5S508.2,371,503.5,371z M42.7,115H128v256H42.7V115z M145.1,21.1h221.9V371h-51.2V260.1h8.5c4.7,0,8.5-3.8,8.5-8.5c0-4.7-3.8-8.5-8.5-8.5H187.7 c-4.7,0-8.5,3.8-8.5,8.5c0,4.7,3.8,8.5,8.5,8.5h8.5V371h-51.2V21.1z M213.3,260.1h34.1V371h-34.1V260.1z M264.5,371V260.1h34.1V371 H264.5z M384,371V115h85.3v256H384z"></path> <path d="M170.7,89.4h34.1c4.7,0,8.5-3.8,8.5-8.5V46.7c0-4.7-3.8-8.5-8.5-8.5h-34.1c-4.7,0-8.5,3.8-8.5,8.5v34.1 C162.1,85.6,166,89.4,170.7,89.4z M179.2,55.3h17.1v17.1h-17.1V55.3z"></path> <path d="M238.9,89.4h34.1c4.7,0,8.5-3.8,8.5-8.5V46.7c0-4.7-3.8-8.5-8.5-8.5h-34.1c-4.7,0-8.5,3.8-8.5,8.5v34.1 C230.4,85.6,234.2,89.4,238.9,89.4z M247.5,55.3h17.1v17.1h-17.1V55.3z"></path> <path d="M307.2,89.4h34.1c4.7,0,8.5-3.8,8.5-8.5V46.7c0-4.7-3.8-8.5-8.5-8.5h-34.1c-4.7,0-8.5,3.8-8.5,8.5v34.1 C298.7,85.6,302.5,89.4,307.2,89.4z M315.7,55.3h17.1v17.1h-17.1V55.3z"></path> <path d="M170.7,157.7h34.1c4.7,0,8.5-3.8,8.5-8.5V115c0-4.7-3.8-8.5-8.5-8.5h-34.1c-4.7,0-8.5,3.8-8.5,8.5v34.1 C162.1,153.8,166,157.7,170.7,157.7z M179.2,123.5h17.1v17.1h-17.1V123.5z"></path> <path d="M238.9,157.7h34.1c4.7,0,8.5-3.8,8.5-8.5V115c0-4.7-3.8-8.5-8.5-8.5h-34.1c-4.7,0-8.5,3.8-8.5,8.5v34.1 C230.4,153.8,234.2,157.7,238.9,157.7z M247.5,123.5h17.1v17.1h-17.1V123.5z"></path> <path d="M307.2,157.7h34.1c4.7,0,8.5-3.8,8.5-8.5V115c0-4.7-3.8-8.5-8.5-8.5h-34.1c-4.7,0-8.5,3.8-8.5,8.5v34.1 C298.7,153.8,302.5,157.7,307.2,157.7z M315.7,123.5h17.1v17.1h-17.1V123.5z"></path> <path d="M213.3,217.4v-34.1c0-4.7-3.8-8.5-8.5-8.5h-34.1c-4.7,0-8.5,3.8-8.5,8.5v34.1c0,4.7,3.8,8.5,8.5,8.5h34.1 C209.5,225.9,213.3,222.1,213.3,217.4z M196.3,208.9h-17.1v-17.1h17.1V208.9z"></path> <path d="M238.9,225.9h34.1c4.7,0,8.5-3.8,8.5-8.5v-34.1c0-4.7-3.8-8.5-8.5-8.5h-34.1c-4.7,0-8.5,3.8-8.5,8.5v34.1 C230.4,222.1,234.2,225.9,238.9,225.9z M247.5,191.8h17.1v17.1h-17.1V191.8z"></path> <path d="M307.2,225.9h34.1c4.7,0,8.5-3.8,8.5-8.5v-34.1c0-4.7-3.8-8.5-8.5-8.5h-34.1c-4.7,0-8.5,3.8-8.5,8.5v34.1 C298.7,222.1,302.5,225.9,307.2,225.9z M315.7,191.8h17.1v17.1h-17.1V191.8z"></path> <path d="M102.4,132.1H68.3c-4.7,0-8.5,3.8-8.5,8.5v34.1c0,4.7,3.8,8.5,8.5,8.5h34.1c4.7,0,8.5-3.8,8.5-8.5v-34.1 C110.9,135.9,107.1,132.1,102.4,132.1z M93.9,166.2H76.8v-17.1h17.1V166.2z"></path> <path d="M443.7,132.1h-34.1c-4.7,0-8.5,3.8-8.5,8.5v34.1c0,4.7,3.8,8.5,8.5,8.5h34.1c4.7,0,8.5-3.8,8.5-8.5v-34.1 C452.3,135.9,448.4,132.1,443.7,132.1z M435.2,166.2h-17.1v-17.1h17.1V166.2z"></path> <path d="M102.4,200.3H68.3c-4.7,0-8.5,3.8-8.5,8.5V243c0,4.7,3.8,8.5,8.5,8.5h34.1c4.7,0,8.5-3.8,8.5-8.5v-34.1 C110.9,204.2,107.1,200.3,102.4,200.3z M93.9,234.5H76.8v-17.1h17.1V234.5z"></path> <path d="M443.7,200.3h-34.1c-4.7,0-8.5,3.8-8.5,8.5V243c0,4.7,3.8,8.5,8.5,8.5h34.1c4.7,0,8.5-3.8,8.5-8.5v-34.1 C452.3,204.2,448.4,200.3,443.7,200.3z M435.2,234.5h-17.1v-17.1h17.1V234.5z"></path> </g> </svg> 