<?xml version="1.0" encoding="UTF-8"?> <!-- Generator: Adobe Illustrator 23.0.3, SVG Export Plug-In . SVG Version: 6.00 Build 0) --> <svg xmlns="http://www.w3.org/2000/svg" xmlns:xlink="http://www.w3.org/1999/xlink" version="1.1" id="Layer_1" x="0px" y="0px" viewBox="0 0 512 512" style="enable-background:new 0 0 512 512;" xml:space="preserve"> <style type="text/css"> .st0{fill:#D9E4E8;} .st1{fill:#4669AF;} .st2{fill:#4FB4C8;} .st3{fill:#FF5722;} .st4{opacity:7.000000e-02;} .st5{fill:#17292D;} .st6{fill:#141F38;} </style> <rect x="52.1" y="225.2" class="st0" width="408.8" height="273"></rect> <path class="st1" d="M103.2,498.3v-198c0-10.6,8.6-19.2,19.2-19.2h89.4c10.6,0,19.2,8.6,19.2,19.2v198H103.2z"></path> <path class="st2" d="M301.3,281.1h89.4c10.6,0,19.2,8.6,19.2,19.2v63.8c0,10.6-8.6,19.2-19.2,19.2h-89.4c-10.6,0-19.2-8.6-19.2-19.2 v-63.8C282.1,289.7,290.7,281.1,301.3,281.1z"></path> <path class="st1" d="M64.8,229.9c-21.2,0-38.3-17.2-38.3-38.3V63.8h76.7v127.7C103.1,212.7,86,229.9,64.8,229.9z"></path> <path class="st3" d="M141.5,229.9c-21.2,0-38.3-17.2-38.3-38.3V63.8h76.7v127.7C179.8,212.7,162.7,229.9,141.5,229.9z"></path> <path class="st1" d="M218.2,229.9c-21.2,0-38.3-17.2-38.3-38.3V63.8h76.7v127.7C256.5,212.7,239.3,229.9,218.2,229.9z"></path> <path class="st3" d="M294.8,229.9c-21.2,0-38.3-17.2-38.3-38.3V63.8h76.7v127.7C333.2,212.7,316,229.9,294.8,229.9z"></path> <path class="st1" d="M371.5,229.9c-21.2,0-38.3-17.2-38.3-38.3V63.8h76.6v127.7C409.7,212.7,392.7,229.9,371.5,229.9z"></path> <path class="st3" d="M448.2,229.9c-21.2,0-38.3-17.2-38.3-38.3V63.8h76.7v127.7C486.4,212.7,469.2,229.9,448.2,229.9z"></path> <path class="st1" d="M26.5,63.8V31.9c0-10.6,8.6-19.2,19.2-19.2h421.6c10.6,0,19.2,8.6,19.2,19.2v31.9H26.5z"></path> <g class="st4"> <path class="st5" d="M295.4,395.4c1.9,0.4,3.9,0.6,5.9,0.6h89.4c17.6,0,31.9-14.3,31.9-31.9v-63.8c0-8.5-3.4-16.6-9.4-22.6 L295.4,395.4z"></path> </g> <path class="st6" d="M301.3,396.1h89.4c17.6,0,31.9-14.3,31.9-31.9v-63.8c0-17.6-14.3-31.9-31.9-31.9h-89.4 c-17.6,0-31.9,14.3-31.9,31.9v63.8C269.2,381.7,283.5,396.1,301.3,396.1z M294.8,300.3c0-3.5,2.9-6.4,6.4-6.4h89.4 c3.5,0,6.4,2.9,6.4,6.4v63.8c0,3.5-2.9,6.4-6.4,6.4h-89.3c-3.5,0-6.4-2.9-6.4-6.4v-63.8H294.8z M205.4,383.3 c0,7.1-5.7,12.7-12.7,12.7h-12.7c-7.1,0-12.7-5.7-12.7-12.7c0-7.1,5.7-12.7,12.7-12.7h12.7C199.6,370.5,205.4,376.2,205.4,383.3 L205.4,383.3z M499.3,485.5h-25.6V235.9c15.8-9.1,25.6-25.9,25.6-44.3V31.9c0-17.6-14.3-31.9-31.9-31.9H45.7 C28.2,0,13.8,14.3,13.8,31.9v159.7c0,18.2,9.7,35.2,25.6,44.3v249.5H13.8c-7.1,0-12.7,5.7-12.7,12.7c0,7.1,5.7,12.7,12.7,12.7h485.5 c7.1,0,12.7-5.7,12.7-12.7C512,491.2,506.3,485.5,499.3,485.5z M218.2,485.5H115.9V300.3c0-3.5,2.9-6.4,6.4-6.4h89.4 c3.5,0,6.4,2.9,6.4,6.4L218.2,485.5z M211.7,268.2h-89.4c-17.6,0-31.9,14.3-31.9,31.9v185.2H64.8V242.8c14.7,0,28.7-6.2,38.3-17.3 c18.6,21.2,50.9,23.2,72.1,4.6c1.6-1.5,3.1-3,4.6-4.6c18.6,21.2,50.9,23.2,72.1,4.6c1.6-1.5,3.1-3,4.6-4.6 c18.6,21.2,50.9,23.2,72.1,4.6c1.6-1.5,3.1-3,4.6-4.6c18.6,21.2,50.9,23.2,72.1,4.6c1.6-1.5,3.1-3,4.6-4.6 c9.7,11,23.7,17.3,38.3,17.3v242.8H243.8V300.3C243.8,282.6,229.4,268.2,211.7,268.2L211.7,268.2z M115.9,76.7h51.1v89.4h-51.1V76.7 z M448.2,217.2c-14.1,0-25.6-11.5-25.6-25.6h51.1C473.7,205.8,462.2,217.2,448.2,217.2z M192.6,191.7h51.1 c0,14.1-11.5,25.6-25.6,25.6C204.1,217.2,192.6,205.8,192.6,191.7z M269.2,191.7h51.1c0,14.1-11.5,25.6-25.6,25.6 S269.2,205.8,269.2,191.7z M345.9,191.7H397c0,14.1-11.5,25.6-25.6,25.6C357.4,217.2,345.9,205.8,345.9,191.7z M397,166.1h-51.1 V76.7H397V166.1z M320.3,166.1h-51.1V76.7h51.1V166.1z M243.8,166.1h-51.1V76.7h51.1V166.1z M167.1,191.7 c0,14.1-11.5,25.6-25.6,25.6s-25.6-11.5-25.6-25.6H167.1z M64.8,217.2c-14.1,0-25.6-11.5-25.6-25.6h51.1 C90.4,205.8,78.9,217.2,64.8,217.2z M473.7,166.1h-51.1V76.7h51.1V166.1z M39.3,31.9c0-3.5,2.9-6.4,6.4-6.4h421.6 c3.5,0,6.4,2.9,6.4,6.4v19.2H39.3V31.9z M39.3,76.7h51.1v89.4H39.3V76.7z"></path> </svg> 