<?xml version="1.0" encoding="UTF-8"?> <!-- Generator: Adobe Illustrator 23.0.3, SVG Export Plug-In . SVG Version: 6.00 Build 0) --> <svg xmlns="http://www.w3.org/2000/svg" xmlns:xlink="http://www.w3.org/1999/xlink" version="1.1" id="Layer_1" x="0px" y="0px" viewBox="0 0 669 537.9" style="enable-background:new 0 0 669 537.9;" xml:space="preserve"> <style type="text/css"> .st0{opacity:0.3;enable-background:new ;} .st1{fill-rule:evenodd;clip-rule:evenodd;fill:#FFFFFF;fill-opacity:0;} .st2{fill:none;stroke:#030446;stroke-width:2.6748;stroke-linecap:round;stroke-dasharray:2.6748,10.6992;} .st3{fill-rule:evenodd;clip-rule:evenodd;fill:url(#SVGID_1_);} .st4{fill:none;stroke:#355082;stroke-width:3.2097;stroke-linecap:round;stroke-linejoin:round;} .st5{fill-rule:evenodd;clip-rule:evenodd;fill:url(#Shape-5_2_);} .st6{fill-rule:evenodd;clip-rule:evenodd;fill:#BF8F3B;} .st7{fill-rule:evenodd;clip-rule:evenodd;fill:url(#chair-shadow_2_);} .st8{fill-rule:evenodd;clip-rule:evenodd;fill:url(#chair_2_);} .st9{fill-rule:evenodd;clip-rule:evenodd;fill:url(#cushion_2_);} .st10{fill-rule:evenodd;clip-rule:evenodd;fill:url(#SVGID_2_);} .st11{fill-rule:evenodd;clip-rule:evenodd;fill:url(#SVGID_3_);} .st12{opacity:0.2;fill-rule:evenodd;clip-rule:evenodd;fill:#3D82F0;enable-background:new ;} .st13{fill-rule:evenodd;clip-rule:evenodd;fill:url(#SVGID_4_);} .st14{fill-rule:evenodd;clip-rule:evenodd;fill:url(#SVGID_5_);} .st15{opacity:0.2;fill-rule:evenodd;clip-rule:evenodd;fill:#617FC8;enable-background:new ;} .st16{fill-rule:evenodd;clip-rule:evenodd;fill:url(#path-19_2_);} .st17{fill-rule:evenodd;clip-rule:evenodd;fill:url(#arm_2_);} .st18{fill-rule:evenodd;clip-rule:evenodd;fill:url(#SVGID_6_);} .st19{opacity:0.3;fill-rule:evenodd;clip-rule:evenodd;fill:url(#Path_2_);enable-background:new ;} .st20{fill-rule:evenodd;clip-rule:evenodd;fill:url(#SVGID_7_);} .st21{opacity:0.2;fill-rule:evenodd;clip-rule:evenodd;fill:#7890CB;enable-background:new ;} .st22{fill-rule:evenodd;clip-rule:evenodd;fill:#FFFFFF;} .st23{fill-rule:evenodd;clip-rule:evenodd;fill:url(#SVGID_8_);} .st24{opacity:0.6;enable-background:new ;} .st25{fill-rule:evenodd;clip-rule:evenodd;fill-opacity:0;} .st26{fill:none;stroke:#D9E8FF;stroke-width:2.1398;} .st27{opacity:0.3;fill-rule:evenodd;clip-rule:evenodd;fill:#CCDFFD;enable-background:new ;} .st28{fill-rule:evenodd;clip-rule:evenodd;fill:url(#SVGID_9_);} .st29{fill-rule:evenodd;clip-rule:evenodd;fill:url(#face_2_);} .st30{fill-rule:evenodd;clip-rule:evenodd;fill:url(#SVGID_10_);} .st31{opacity:0.5;fill-rule:evenodd;clip-rule:evenodd;fill:#6B84C2;enable-background:new ;} .st32{fill-rule:evenodd;clip-rule:evenodd;fill:url(#path-39_2_);} .st33{fill-rule:evenodd;clip-rule:evenodd;fill:#CCDFFD;} .st34{fill-rule:evenodd;clip-rule:evenodd;fill:url(#SVGID_11_);} .st35{fill-rule:evenodd;clip-rule:evenodd;fill:url(#path-43_2_);} .st36{fill:none;stroke:#143B8C;stroke-width:1.6049;stroke-linecap:round;} .st37{fill:none;stroke:#143B8C;stroke-width:2.1398;} .st38{fill-rule:evenodd;clip-rule:evenodd;fill:#143B8C;} .st39{fill-rule:evenodd;clip-rule:evenodd;fill:#EEF5FF;} .st40{fill-rule:evenodd;clip-rule:evenodd;fill:url(#pocket_2_);} </style> <title>Award Illustration</title> <desc>Created with Sketch.</desc> <g id="Page-1"> <g id="Services-" transform="translate(-791.000000, -90.000000)"> <g id="Award-Illustration" transform="translate(799.000000, 116.000000)"> <g id="Artwork_1_" transform="translate(305.000000, 251.500000) scale(-1, 1) translate(-305.000000, -251.500000) "> <g id="message_1_" transform="translate(0.854637, 3.029752)"> <g id="Group-71_1_"> <g id="line_1_" class="st0"> <path class="st1" d="M60.5,172.7C60.5,172.7,216,30,387,203C504,340,647,48,441,30"></path> <path class="st2" d="M60.5,172.7C60.5,172.7,216,30,387,203C504,340,647,48,441,30"></path> </g> <g id="Group-62_1_" transform="translate(103.821793, 0.698346)"> <g id="Ellipse-4_1_"> <linearGradient id="SVGID_1_" gradientUnits="userSpaceOnUse" x1="-35.0726" y1="-86.3783" x2="-35.367" y2="-85.8091" gradientTransform="matrix(-66.2344 0 0 66.4248 -2016.6587 5765.6348)"> <stop offset="0" style="stop-color:#CBDAF1"></stop> <stop offset="1" style="stop-color:#9CB3DF"></stop> </linearGradient> <path class="st3" d="M336.5,33.7c0,18.3-14.8,33.2-33.1,33.2c-18.3,0-33.1-14.9-33.1-33.2s14.8-33.2,33.1-33.2 S336.5,15.4,336.5,33.7z"></path> </g> <polyline id="Shape-8_1_" class="st4" points="295.3,46.4 306.2,35.5 306.2,11.6 "></polyline> </g> <g id="Group-44_1_" transform="translate(477.835167, 157.885652)"> <linearGradient id="Shape-5_2_" gradientUnits="userSpaceOnUse" x1="-35.5157" y1="-86.5836" x2="-34.4541" y2="-86.7013" gradientTransform="matrix(-66.7622 0 0 59.4608 -2781.9326 5173.7661)"> <stop offset="0" style="stop-color:#FDAE6B"></stop> <stop offset="1" style="stop-color:#FAE539"></stop> </linearGradient> <polygon id="Shape-5_1_" class="st5" points="-477,60 -443.2,0.6 -429.8,13.2 -457.4,45.1 -421.4,22.4 -410.3,37 "></polygon> <g id="Group-39_1_" transform="translate(10.467664, 12.320461)"> <polygon id="Shape-6_1_" class="st6" points="-469.4,33.9 -439.9,9.4 -431.5,10.5 "></polygon> <polygon id="Shape-7_1_" class="st6" points="-468.7,33.1 -440.7,0.9 -439.5,9.4 "></polygon> </g> </g> </g> </g> <g id="Person_1_" transform="translate(12.038186, 124.756645)"> <radialGradient id="chair-shadow_2_" cx="-37.6461" cy="-84.5756" r="0.8528" gradientTransform="matrix(1.698215e-09 37.8251 126.2657 -5.668892e-09 10990.4736 1761.6443)" gradientUnits="userSpaceOnUse"> <stop offset="0" style="stop-color:#000000"></stop> <stop offset="1" style="stop-color:#2062E7"></stop> </radialGradient> <path id="chair-shadow_1_" class="st7" d="M421.8,361.6c0.3-12.3-49.4-29.4-110.3-29.4S201.2,349,201.2,361.6 s-5.8,7.2,110.6,7.2S421.5,373.8,421.8,361.6z"></path> <radialGradient id="chair_2_" cx="-34.2522" cy="-84.7254" r="0.4226" gradientTransform="matrix(-98.5032 -270.0876 -371.8139 169.3661 -34527.4727 5298.8252)" gradientUnits="userSpaceOnUse"> <stop offset="0" style="stop-color:#62ABFB"></stop> <stop offset="1" style="stop-color:#1440C0"></stop> </radialGradient> <path id="chair_1_" class="st8" d="M441.2,86.2c-3-3.7-9.5-3.2-13.2-5.9c-32.3-23.9-87.3-14.3-149.2,28.2 c-68.9,47.3-131.7,115.3-102.3,172.1c44.5,88.2,143.8,92.5,211.4,60C455.4,308.1,523.1,180,441.2,86.2z"></path> <radialGradient id="cushion_2_" cx="-34.9062" cy="-84.6361" r="0.542" gradientTransform="matrix(72.8913 221.5426 859.2552 -289.5682 75567.9063 -16644.7246)" gradientUnits="userSpaceOnUse"> <stop offset="0" style="stop-color:#F4F8FF"></stop> <stop offset="1" style="stop-color:#89B1E9"></stop> </radialGradient> <path id="cushion_1_" class="st9" d="M439.9,89.6c-25.1-40.3-88.1-33.1-160.4,12.2S150.7,225.8,174,269.3 c25.1,40.3,99.8,35.3,172-10C418.4,214,465,129.8,439.9,89.6z"></path> <g id="shadow_1_"> <image style="overflow:visible;enable-background:new ;" width="244" height="224" transform="matrix(-0.9957 0 0 0.9957 433.8531 80.5322)"> </image> </g> <g id="shoe_1_" transform="translate(399.008769, 334.266634)"> <g id="Path-17_1_"> <g> <linearGradient id="SVGID_2_" gradientUnits="userSpaceOnUse" x1="-34.2262" y1="-87.8005" x2="-35.3423" y2="-87.7921" gradientTransform="matrix(-78.924 0 0 35.9909 -3073.1206 3180.3608)"> <stop offset="0" style="stop-color:#002971"></stop> <stop offset="1" style="stop-color:#00255B"></stop> </linearGradient> <path class="st10" d="M-281.8,37.4h-15.5c0,0,0.7-2.3,0-5.1c-3.6,2.2-5.8,3.4-12.3,5.8h-36c-11.7,0-10.6-4.2-5-10.5 s31.8-12,40.9-16.8c9.1-4.9,8.8-6,11.1-8.1c2.3-2.1,20.6,1.6,22.2,8.1s0,10.1-1.1,14.9C-278.6,30.6-281.8,37.4-281.8,37.4z"></path> </g> <g> <linearGradient id="SVGID_3_" gradientUnits="userSpaceOnUse" x1="-34.7262" y1="-87.7438" x2="-35.1703" y2="-87.6848" gradientTransform="matrix(-78.924 0 0 35.9909 -3073.1206 3180.3608)"> <stop offset="0" style="stop-color:#004197"></stop> <stop offset="1" style="stop-color:#00245E"></stop> </linearGradient> <path class="st11" d="M-281.8,37.4h-15.5c0,0,0.7-2.3,0-5.1c-3.6,2.2-5.8,3.4-12.3,5.8h-36c-11.7,0-10.6-4.2-5-10.5 s31.8-12,40.9-16.8c9.1-4.9,8.8-6,11.1-8.1c2.3-2.1,20.6,1.6,22.2,8.1s0,10.1-1.1,14.9C-278.6,30.6-281.8,37.4-281.8,37.4z"></path> </g> </g> <path id="Path-21_1_" class="st12" d="M-272.7,9.9c-19.2-7.6-27.5-9.7-25-6.2c3.8,5.2,16.8,21.4,20.2,30 C-275.3,39.5-273.7,31.5-272.7,9.9z"></path> </g> <g transform="translate(420.908849, 185.882247)"> <g id="Path-17-Copy_1_"> <g> <linearGradient id="SVGID_4_" gradientUnits="userSpaceOnUse" x1="-34.2688" y1="-86.995" x2="-35.3848" y2="-86.9796" gradientTransform="matrix(-72.0811 0 0 47.5294 -2878.4983 4161.2988)"> <stop offset="0" style="stop-color:#002971"></stop> <stop offset="1" style="stop-color:#00255B"></stop> </linearGradient> <path class="st13" d="M-339.5,49.8l-12.3-8.4c0,0,1.8-1.4,2.7-4c-4.1-0.2-6.5-0.4-12.9-2c-5.2-3.6-22.1-21.6-26.4-24.6 c-9.3-6.3-2.2-6.3,5.6-8.3c7.9-2,25.5,10.1,35.4,11.2s10.2,0,13.1-0.4c3-0.4,15.5,12.4,13.2,18.4c-2.2,6-5.4,8-8.9,11.3 C-333.2,46.2-339.5,49.8-339.5,49.8z"></path> </g> <g> <linearGradient id="SVGID_5_" gradientUnits="userSpaceOnUse" x1="-34.7932" y1="-86.9704" x2="-35.2373" y2="-86.8623" gradientTransform="matrix(-72.0811 0 0 47.5294 -2878.4983 4161.2988)"> <stop offset="0" style="stop-color:#004197"></stop> <stop offset="1" style="stop-color:#00245E"></stop> </linearGradient> <path class="st14" d="M-339.5,49.8l-12.3-8.4c0,0,1.8-1.4,2.7-4c-4.1-0.2-6.5-0.4-12.9-2c-5.2-3.6-22.1-21.6-26.4-24.6 c-9.3-6.3-2.2-6.3,5.6-8.3c7.9-2,25.5,10.1,35.4,11.2s10.2,0,13.1-0.4c3-0.4,15.5,12.4,13.2,18.4c-2.2,6-5.4,8-8.9,11.3 C-333.2,46.2-339.5,49.8-339.5,49.8z"></path> </g> </g> <path id="Path-19_1_" class="st15" d="M-322.1,42.4c5.9-5.4,7-10,3.3-13.6c-7.7-13-12.3-18.8-13.9-17.4 c-2.4,2.1,3,26.4-2.2,37.2C-340.1,59.3-330.9,50.5-322.1,42.4z"></path> </g> <g id="sleeve_1_"> <g> <linearGradient id="path-19_2_" gradientUnits="userSpaceOnUse" x1="-35.1083" y1="-85.9962" x2="-35.1911" y2="-85.3587" gradientTransform="matrix(-60.8619 0 0 102.7714 -1850.0464 8900.3799)"> <stop offset="0" style="stop-color:#F5F8FF"></stop> <stop offset="1" style="stop-color:#FFFFFF"></stop> </linearGradient> <path id="path-19_1_" class="st16" d="M293.6,142.3c-25.2-32.2-37.3-72-38.9-77.9s2.7-26.1,12.7-15.5 c9.9,10.5,23.6,47.9,47.6,60.8C318,126.4,293.6,163.3,293.6,142.3z"></path> </g> <g> <image style="overflow:visible;enable-background:new ;" width="63" height="90" transform="matrix(-0.9873 0 0 0.9873 315.182 49.7787)"> </image> </g> </g> <linearGradient id="arm_2_" gradientUnits="userSpaceOnUse" x1="-35.5249" y1="-87.367" x2="-34.8438" y2="-87.334" gradientTransform="matrix(-66.1532 0 0 41.1624 -2025.2438 3663.7407)"> <stop offset="0" style="stop-color:#FF9988"></stop> <stop offset="1" style="stop-color:#FFC1BD"></stop> </linearGradient> <path id="arm_1_" class="st17" d="M322.1,87.1c0,0-16.3-3.5-23.3-3.7c-7.1-0.2-13.5-5.4-18.2-7.5s-27.7-28.4-20-29.9 c7.7-1.5,64.6,21.1,64.6,21.1L322.1,87.1z"></path> <g id="leg_1_" transform="translate(205.112942, 185.346563)"> <g id="Path-7_1_"> <g> <linearGradient id="SVGID_6_" gradientUnits="userSpaceOnUse" x1="-34.5923" y1="-85.362" x2="-34.2311" y2="-85.5101" gradientTransform="matrix(-214.8729 0 0 154.6069 -7445.3105 13267.7559)"> <stop offset="0" style="stop-color:#002383"></stop> <stop offset="1" style="stop-color:#316EEA"></stop> </linearGradient> <path class="st18" d="M97.1,90.4c-15.3,12.3-61.4-3-74.8-7.8s-51.8-21-70.5-26.3c1.1,7.1-0.9,27.1-6.4,43.2 s-16.3,48.8-19.7,62.3c-9.5,0-25.7-4.2-30.2-9.7c5.9-12.3,11.7-72.8,16.8-133C-25.7,0.6,8.2,7.3,45,14.5s54,26.9,61,36.4 S112.3,78.1,97.1,90.4z"></path> </g> <g> <image style="overflow:visible;enable-background:new ;" width="235" height="171" transform="matrix(-0.9952 0 0 0.9952 118.7904 2.4423)"> </image> </g> </g> <linearGradient id="Path_2_" gradientUnits="userSpaceOnUse" x1="-34.9974" y1="-85.9033" x2="-34.6992" y2="-86.5126" gradientTransform="matrix(-56.493 0 0 73.1566 -2005.0563 6343.0693)"> <stop offset="0" style="stop-color:#002343"></stop> <stop offset="1" style="stop-color:#1A72FF;stop-opacity:0.4369"></stop> </linearGradient> <path id="Path_1_" class="st19" d="M6.7,67.2C3.3,52.9-11.1,32.4-36.7,5.8c-11.2-0.5-14.9,0.9-11.2,4 c5.7,4.7,26.8,49,26.8,57.4S11.7,88.7,6.7,67.2z"></path> </g> <g id="neck_1_" transform="translate(159.176189, 81.423924)"> <g id="Path-4_1_"> <linearGradient id="SVGID_7_" gradientUnits="userSpaceOnUse" x1="-35.3101" y1="-86.5191" x2="-35.3101" y2="-85.9172" gradientTransform="matrix(-43.2004 0 0 70.7148 -1342.8051 6133.2676)"> <stop offset="0" style="stop-color:#6081C1"></stop> <stop offset="1" style="stop-color:#90AADB"></stop> </linearGradient> <path class="st20" d="M161,74.2l5-38.7l4.3-22.9c0,0,34.6-12.1,33.9-8.6c-0.7,3.5-4.3,19.8-6.1,29.2 C196.2,42.6,161,74.2,161,74.2z"></path> </g> <path id="Path-22_1_" class="st21" d="M202.3,1.6l-38.1,9.7l-1.9,20.2c8.5,0.3,15.1-1,19.9-3.7c7.1-4.1,20.2-19.1,20.2-22.6 C202.3,2.8,202.3,1.6,202.3,1.6z"></path> </g> <g id="shirt_1_" transform="translate(130.866330, 106.065374)"> <g id="Path-9_1_"> <g> <path class="st22" d="M195.9,14.5l1.1,7.9l-3.9,13.1c2.2-4.5,7.2-9.4,8.4-11.8s1.6-6.6,2.8-9c0,0,3.3,0,8.4,2.5 s7.9-9.6,20.2-12.7c3.4,0,10.9,5.9,18.6,3c9.8,0-1.8,12.5-3.5,28c-1.6,15.4,0.9,20.3-5.5,25.3s-45.7,40.8-50.5,55.1 s-4.8,11.9-20.9,5.3c-18.4-23.1-44.3-21.4-48.8-25.7c-4.5-4.2-1.6-8.8,6.4-14.5c7.9-5.7,10.9-7.3,16.9-15 c6.1-7.7,12.8-17.6,16.3-27.2s11.7-28.1,20.3-34.3c0.9-1.6,14-3.8,14-3.8L195.9,14.5z"></path> </g> <g> <linearGradient id="SVGID_8_" gradientUnits="userSpaceOnUse" x1="-34.9012" y1="-85.2519" x2="-34.9927" y2="-85.4416" gradientTransform="matrix(-135.1305 0 0 125.6873 -4509.2349 10803.1162)"> <stop offset="0" style="stop-color:#B1C2E4"></stop> <stop offset="1" style="stop-color:#FFFFFF;stop-opacity:0"></stop> </linearGradient> <path class="st23" d="M195.9,14.5l1.1,7.9l-3.9,13.1c2.2-4.5,7.2-9.4,8.4-11.8s1.6-6.6,2.8-9c0,0,3.3,0,8.4,2.5 s7.9-9.6,20.2-12.7c3.4,0,10.9,5.9,18.6,3c9.8,0-1.8,12.5-3.5,28c-1.6,15.4,0.9,20.3-5.5,25.3s-45.7,40.8-50.5,55.1 s-4.8,11.9-20.9,5.3c-18.4-23.1-44.3-21.4-48.8-25.7c-4.5-4.2-1.6-8.8,6.4-14.5c7.9-5.7,10.9-7.3,16.9-15 c6.1-7.7,12.8-17.6,16.3-27.2s11.7-28.1,20.3-34.3c0.9-1.6,14-3.8,14-3.8L195.9,14.5z"></path> </g> </g> <g id="Shape-1_1_" class="st24"> <path class="st25" d="M139.2,99.6c0.2-4.2,21.2-17.5,24.6-20.9c3.4-3.4,12.3-12.3,15-15.5c2.7-3.2,15.4-25.5,16.6-27.9"></path> <path class="st26" d="M139.2,99.6c0.2-4.2,21.2-17.5,24.6-20.9c3.4-3.4,12.3-12.3,15-15.5c2.7-3.2,15.4-25.5,16.6-27.9"></path> </g> <path id="Path-23_1_" class="st27" d="M214,18.2l-10.6-8c-3.1,6.9-3.5,10.3-1.2,10.3s5.3,3.5,9.2,10.6L214,18.2z"></path> </g> <linearGradient id="SVGID_9_" gradientUnits="userSpaceOnUse" x1="-34.6879" y1="-85.3567" x2="-34.5173" y2="-85.226" gradientTransform="matrix(-216.5453 0 0 129.3403 -7314.354 11251.0107)"> <stop offset="0" style="stop-color:#3D9BF8"></stop> <stop offset="1" style="stop-color:#3B80F0"></stop> </linearGradient> <path class="st28" d="M296,228.2c13.8,9.3-14.6,23.5-24.5,29.9c-17,11-35.5,9.5-48.6,8.9s-20.7-23.8-32.2-44.1 c-11.5-20.4-31.5-34.2-39.3-39c-6.2,9.6-29.4,18.2-51.7,36.8c-8.8-6.3-14.4-26.1-16.6-28.4c0,0,47.1-51.2,65.2-54.2 c31.6,5.3,87,39.7,106.3,57.6C262.8,203.1,288.1,222.9,296,228.2z"></path> <linearGradient id="face_2_" gradientUnits="userSpaceOnUse" x1="-35.5659" y1="-86.4208" x2="-34.8886" y2="-86.3264" gradientTransform="matrix(-57.6533 0 0 59.2179 -1679.0614 5198.1685)"> <stop offset="0" style="stop-color:#FF9988"></stop> <stop offset="1" style="stop-color:#FFC1BD"></stop> </linearGradient> <path id="face_1_" class="st29" d="M356.3,50.3c7.7,3.3,14.9,8.2,17,18.2S371,83,366,87.1c-1.2,0.9-3.5-0.5-4.2-1.9 c-1.8-0.5-8.8,8.5-11,12.3c-2.9,5-10.2,5.8-13.6,7s-15.6-0.7-19.7-4.4c-4.1-3.7,2.8-27.9,3.5-31.6c0.7-3.6,7.9-18.2,9.2-21.5 C331.4,43.7,348.6,47,356.3,50.3z"></path> <g transform="translate(71.575870, 74.460035)"> <g id="Path-13_1_"> <linearGradient id="SVGID_10_" gradientUnits="userSpaceOnUse" x1="-35.4238" y1="-88.913" x2="-34.7424" y2="-88.9014" gradientTransform="matrix(-82.4857 0 0 26.9132 -2545.3469 2408.5212)"> <stop offset="0" style="stop-color:#FF9988"></stop> <stop offset="1" style="stop-color:#FFC1BD"></stop> </linearGradient> <path class="st30" d="M376.4,6.9c-3.5-5.1-69.8-6.2-73.1-3.8c-3.3,2.5-14.5,16.3-5.7,15.1c9.6-1.3,39.9,13.8,49.3,10 C354.5,25.1,379.8,12.1,376.4,6.9z"></path> </g> <path id="Path-24_1_" class="st31" d="M338.1,32.3c-23-7.7-31.2-10.7-24.6-9.1c9.9,2.4,49.8-15,51.7-15.7 C366.5,6.9,357.4,15.2,338.1,32.3z"></path> </g> <g id="hair_1_"> <g> <linearGradient id="path-39_2_" gradientUnits="userSpaceOnUse" x1="-34.7804" y1="-85.6304" x2="-35.3423" y2="-85.3222" gradientTransform="matrix(-67.7823 0 0 98.156 -2024.2004 8466.9248)"> <stop offset="0" style="stop-color:#2669E1"></stop> <stop offset="1" style="stop-color:#143B8C"></stop> </linearGradient> <path id="path-39_1_" class="st32" d="M355.9,75c1.8,2.1,2.8,4.3,2.8,4.3s3.8-15.5,11.4-8.7c4,3.6-2.9,17.1-8.7,14.3 c0,2.9-0.1,7.6-1.6,17.9c5.1-2.6,21.2-16.9,23-34.3s-6.5-28.6-16.8-32.8c-10.2-4.2-24.5-6.4-21.8-12.3 c2.8-5.9,6.5-13.8-8.8-18.3c-15.3-4.4-28.6,18.3-13.7,35.1s33.3,7.7,36.8,14.5s-1,13.7-1,13.7S356.6,71.3,355.9,75z"></path> </g> <g> <image style="overflow:visible;enable-background:new ;" width="74" height="110" transform="matrix(-0.9895 0 0 0.9895 388.5904 1.1058)"> </image> </g> </g> <path id="colar_1_" class="st33" d="M327.8,104.1c0.6-2-2.5,11.8-4,9.7c0,0-4.2,21.6-3.4,19.1c0.8-2.4,1.7-11.1,6.4-12.8 C327.5,115.6,326.2,109.5,327.8,104.1z"></path> <linearGradient id="SVGID_11_" gradientUnits="userSpaceOnUse" x1="-35.6692" y1="-87.3423" x2="-35.5405" y2="-87.5798" gradientTransform="matrix(-28.4682 0 0 42.0032 -667.7379 3789.2349)"> <stop offset="0" style="stop-color:#EEF5FF"></stop> <stop offset="1" style="stop-color:#ADC8F2"></stop> </linearGradient> <path class="st34" d="M363.7,110.4c0-4.1-3.3-10.4-3.3-10.4s-0.3,0.8-2,6.1c-1.7,5.3-17.7,14.9-23.1,14.6 c3.8,3.6,6.8,13.6,6.8,21.3C350.9,134.5,361.3,119.2,363.7,110.4z"></path> <g> <g> <linearGradient id="path-43_2_" gradientUnits="userSpaceOnUse" x1="-35.0334" y1="-86.1761" x2="-35.3215" y2="-85.5388" gradientTransform="matrix(-82.7121 0 0 85.7488 -2479.1646 7487.5122)"> <stop offset="0" style="stop-color:#F5F8FF"></stop> <stop offset="1" style="stop-color:#FFFFFF"></stop> </linearGradient> <path id="path-43_1_" class="st35" d="M370.9,139.3c-2.8,10.5-6.8,23.6,6.3,26.1c13.1,2.5,20.4-12.7,23.3-18.9 c6.7-14.4,50-43.5,50-52.1s2.2-12.4-6.1-14.4c-8.3-2-39.9,22.7-55.7,31.4C379,116.8,374.2,126.9,370.9,139.3z"></path> </g> <g> <image style="overflow:visible;enable-background:new ;" width="92" height="97" transform="matrix(-0.9894 0 0 0.9894 456.2524 74.4873)"> </image> </g> </g> <g id="glasses_1_" transform="translate(160.778634, 51.961320)"> <g id="Path-18_1_"> <path class="st25" d="M177.4,15.1c1.8,2,5.3,2.6,8.1,1.8"></path> <path class="st36" d="M177.4,15.1c1.8,2,5.3,2.6,8.1,1.8"></path> </g> <g id="Path-18-Copy_1_"> <path class="st25" d="M156.3,9.2c1.6,2,4.6,2.6,7,1.8"></path> <path class="st36" d="M156.3,9.2c1.6,2,4.6,2.6,7,1.8"></path> </g> <g id="Path-14_1_"> <polygon class="st25" points="174.6,8 172.1,21.7 188.6,25.7 191.6,12.6 "></polygon> <polygon class="st37" points="174.6,8 172.1,21.7 188.6,25.7 191.6,12.6 "></polygon> </g> <g id="Path-14-Copy_1_"> <polygon class="st25" points="154.6,2.3 152.3,15.7 164.7,19.3 167.4,5.8 "></polygon> <polygon class="st37" points="154.6,2.3 152.3,15.7 164.7,19.3 167.4,5.8 "></polygon> </g> <polygon id="Path-15_1_" class="st38" points="189.5,22.7 200.1,20.2 201.7,16.9 191.9,14.2 "></polygon> <polygon id="Path-16_1_" class="st38" points="173.5,16 165.8,13.8 166.6,9.9 174,12.2 "></polygon> </g> <g transform="translate(58.222163, 88.923495)"> <g id="Mask-by-Oval_1_"> <g> <g id="Mask_1_"> <g> <path class="st25" d="M381.7,0.6c-49.9,18-48.1,55.8-120.4,101.1s-175.7,19.9-145.5,78.6c25.1,40.3,99.8,35.3,172-10 C360.2,125.1,406.8,40.9,381.7,0.6z"></path> </g> </g> <g id="Oval-3_1_"> <g> <path id="path-47_1_" class="st39" d="M457.3,25.1C441.7,1,398.5,1.4,360.8,26s-55.7,64-40.1,88.1s58.8,23.7,96.5-0.9 S472.9,49.2,457.3,25.1z"></path> </g> <g> <g> <image style="overflow:visible;enable-background:new ;" width="160" height="144" transform="matrix(-0.9934 0 0 0.9934 468.3415 -1.885)"> </image> </g> </g> </g> <g id="Oval-3-Copy_1_"> <g> <path id="path-49_1_" class="st39" d="M366.2,167.9c17.1-36.9,8.5-77.3-19.3-90.3s-64.2,6.3-81.4,43.2 c-17.1,36.9-8.5,77.3,19.3,90.3C312.6,224.2,349.1,204.8,366.2,167.9z"></path> </g> <g> <g> <image style="overflow:visible;enable-background:new ;" width="125" height="147" transform="matrix(-0.9927 0 0 0.9927 378.2461 71.37)"> </image> </g> </g> </g> <g id="Oval-3-Copy-2_1_"> <g> <path id="path-51_1_" class="st39" d="M294.1,230.1c17.1-36.9,8.5-77.3-19.3-90.3s-64.2,6.3-81.4,43.2 s-8.5,77.3,19.3,90.3C240.5,286.3,276.9,267,294.1,230.1z"></path> </g> <g> <g> <image style="overflow:visible;enable-background:new ;" width="125" height="147" transform="matrix(-0.9927 0 0 0.9927 306.1361 133.5093)"> </image> </g> </g> </g> <g id="Oval-3-Copy-4_1_"> <g> <path id="path-53_1_" class="st39" d="M159.5,251c17.1-36.9,8.5-77.3-19.3-90.3S76,167,58.8,203.9 c-17.1,36.9-8.5,77.3,19.3,90.3S142.3,287.8,159.5,251z"></path> </g> <g> <g> <image style="overflow:visible;enable-background:new ;" width="119" height="141" transform="matrix(-0.9924 0 0 0.9924 168.4569 157.3763)"> </image> </g> </g> </g> <g id="Oval-3-Copy-3_1_"> <g> <path id="path-55_1_" class="st39" d="M223.3,204.3c-2.9-23.3-29.9-39.2-60.3-35.5c-30.5,3.7-52.8,25.7-50,49.1 c2.9,23.3,29.9,39.2,60.3,35.5C203.8,249.6,226.2,227.6,223.3,204.3z"></path> </g> <g> <g> <image style="overflow:visible;enable-background:new ;" width="127" height="101" transform="matrix(-0.9913 0 0 0.9913 231.2554 161.073)"> </image> </g> </g> </g> </g> </g> </g> <linearGradient id="pocket_2_" gradientUnits="userSpaceOnUse" x1="-36.0566" y1="-90.1821" x2="-36.3003" y2="-89.1821" gradientTransform="matrix(-24.237 0 0 22.8336 -567.934 2200.0205)"> <stop offset="0" style="stop-color:#EEF5FF"></stop> <stop offset="1" style="stop-color:#D9E8FF"></stop> </linearGradient> <path id="pocket_1_" class="st40" d="M305.2,163h-9.9l-4.2-4.7c0,0,8.6-19.7,10.1-18s14.2,4.1,14.2,4.1L305.2,163z"></path> </g> </g> </g> </g> </g> </svg> 